<svg preserveAspectRatio="none" width="100%" height="100%" overflow="visible" style="display: block;" viewBox="0 0 37.7663 35.61" fill="none" xmlns="http://www.w3.org/2000/svg">
<g id="&#240;&#159;&#166;&#134; emoji &#34;paw prints&#34;">
<path id="Vector" d="M17.3719 15.8901C17.3719 20.6167 14.4009 18.0388 10.7344 18.0388C7.06902 18.0388 4.09693 20.6178 4.09693 15.8901C4.09693 12.8051 7.06902 9.44488 10.7344 9.44488C14.3998 9.44488 17.3719 12.8051 17.3719 15.8901ZM3.84101 7.3752C4.29817 8.78275 3.84916 10.1429 2.8383 10.4128C1.82627 10.6827 0.636276 9.76013 0.179121 8.35153C-0.278034 6.94398 0.169815 5.58387 1.18184 5.31396C2.19386 5.04405 3.38386 5.9666 3.84101 7.3752ZM21.2897 8.37051C20.8162 9.77489 19.6123 10.6858 18.6003 10.4054C17.5882 10.1249 17.1532 8.75956 17.6266 7.35517C18.1001 5.95079 19.304 5.03983 20.316 5.32029C21.3269 5.60074 21.7631 6.96612 21.2897 8.37051ZM9.52928 3.24745C9.95502 5.24859 9.27685 7.04941 8.01473 7.26977C6.75378 7.48907 5.3858 6.04568 4.96122 4.04453C4.53431 2.04339 5.21248 0.242566 6.4746 0.0222076C7.73672 -0.19815 9.10469 1.2463 9.52928 3.24745ZM16.5041 4.06773C16.0539 6.06465 14.6685 7.49435 13.4099 7.26134C12.1512 7.02833 11.4952 5.22012 11.9453 3.2232C12.3955 1.22627 13.7809 -0.203422 15.0396 0.0295881C16.2982 0.263653 16.9531 2.0708 16.5041 4.06773ZM33.6573 32.7596C33.6573 37.4862 30.6852 34.9084 27.0198 34.9084C23.3544 34.9084 20.3823 37.4862 20.3823 32.7596C20.3823 29.6756 23.3544 26.3144 27.0198 26.3144C30.6852 26.3144 33.6573 29.6756 33.6573 32.7596ZM20.1264 24.2437C20.5847 25.6523 20.1346 27.0124 19.1237 27.2823C18.1117 27.5522 16.9217 26.6296 16.4645 25.2221C16.0074 23.8135 16.4564 22.4534 17.4673 22.1835C18.4793 21.9136 19.6693 22.8361 20.1264 24.2437ZM37.5751 25.24C37.1017 26.6444 35.8977 27.5554 34.8857 27.2749C33.8748 26.9944 33.4386 25.6291 33.912 24.2257C34.3855 22.8213 35.5894 21.9104 36.6015 22.1909C37.6123 22.4703 38.0485 23.8356 37.5751 25.24ZM25.8147 20.117C26.2393 22.117 25.5611 23.9189 24.3001 24.1382C23.038 24.3586 21.6701 22.9152 21.2455 20.913C20.8209 18.9118 21.4991 17.111 22.76 16.8907C24.0221 16.6714 25.3901 18.1158 25.8147 20.117ZM32.7895 20.9372C32.3382 22.9331 30.9539 24.3639 29.6953 24.1308C28.4366 23.8968 27.7794 22.0886 28.2296 20.0927C28.6809 18.0958 30.0652 16.6661 31.3238 16.8991C32.5824 17.1332 33.2397 18.9414 32.7895 20.9372Z" fill="var(--fill-0, #662113)"/>
</g>
</svg>
